<svg id="Layer_1" data-name="Layer 1" xmlns="http://www.w3.org/2000/svg" viewBox="0 0 200 44.41"><defs><style>.cls-1{fill:#110008;}</style></defs><title>logo.bookstore_placeholder</title><g id="Layer_1-2" data-name="Layer_1"><path class="cls-1" d="M42.42,16.5a10.6,10.6,0,0,1-.63,3.42,5.1,5.1,0,0,1-1.56,2.55l1.41.4v1.61l-1.16.38a22.7,22.7,0,0,0-.43,2.45,12.8,12.8,0,0,0,.43,3.5l1.16.52v1.54L18.87,44.41,4.16,31.79c-1.67-1.43-2.46-3.74-2.37-7a3.26,3.26,0,0,1,.65-2.18,5.22,5.22,0,0,1,1.54-1A31.59,31.59,0,0,1,9.4,20.43L5.47,18.59V17.33L7,16.93a14.46,14.46,0,0,0,.47-3.68c0-.28,0-.69-.07-1.21L0,10.46V9.19l1-.12a9.3,9.3,0,0,0,.52-3.3A9.54,9.54,0,0,0,1,2.42H0V1.49L13.16,0,36.47,1.51A3.83,3.83,0,0,1,39.23,3a5.22,5.22,0,0,1,1.1,3.44,4.65,4.65,0,0,1-2.8,4.33,5.45,5.45,0,0,1,3.05.55,4.66,4.66,0,0,1,1.33,2.35,9.6,9.6,0,0,1,.51,2.87Zm-1.19.08a6.43,6.43,0,0,0-.83-3.43c-.53-.92-1.11-1.35-1.74-1.28L24.51,13.55a14.07,14.07,0,0,1,.88,5.06,21,21,0,0,1-.9,6l15-3.53c.46-.1.86-.59,1.21-1.49A8.89,8.89,0,0,0,41.24,16.58ZM17.09,5.77a4.64,4.64,0,0,0-1.2-3.49,3.53,3.53,0,0,0-3-1.09L1.36,2.24a10.6,10.6,0,0,1,.56,3.53,12.39,12.39,0,0,1-.56,3.7L12,11.19a3.54,3.54,0,0,0,.6,0,4,4,0,0,0,3.11-1.52A6.1,6.1,0,0,0,17.09,5.77ZM25,18.62a13.72,13.72,0,0,0-.91-5.06l-4.33-.81a51.72,51.72,0,0,1-6,.61A3.11,3.11,0,0,1,13,13.3L7.81,12.17c.05.55.08,1,.08,1.26a15.51,15.51,0,0,1-.63,4.14l16.8,7.05a21.05,21.05,0,0,0,.91-6Zm15.34,13a13.39,13.39,0,0,1-.61-4.14A10.7,10.7,0,0,1,40.1,25l-20.78,7.1a13.65,13.65,0,0,0-.5,3.93,26.07,26.07,0,0,0,.55,5.37l20.94-9.77ZM18.82,41.38A27.29,27.29,0,0,1,18.29,36a13,13,0,0,1,.53-3.93L5.72,23.47a2.1,2.1,0,0,0-1.13-.38c-1,0-1.46.8-1.44,2.4q.08,3.37,1.44,4.45L18.82,41.38Z"/></g><path d="M45.19,30.89l5.1-1V6.82l-5-.34v-3a51.65,51.65,0,0,0,5.44.58c2.72,0,5.39-.58,8.11-.58,3.83,0,7.52,2.33,7.52,6.5a7.7,7.7,0,0,1-3.88,6.36c3.93,1.26,6.31,4,6.31,8.2,0,5.44-3.64,8.06-8.35,8.06-2.67,0-5.39-.58-8.06-.58a26,26,0,0,0-6.46,1.12ZM53.3,15.6h2.14c6,0,7.72-2.82,7.72-5.44s-2-3.93-4.61-3.93a31.54,31.54,0,0,0-5.24.53Zm0,14.22,2.91.29,2.86.29a5.6,5.6,0,0,0,6.5-5.87c0-3.16-1.85-6.21-8.45-6.21H53.3Z"/><path d="M70.8,25.94a7.05,7.05,0,1,1,14.1,0,7.05,7.05,0,1,1-14.1,0Zm12,0a5,5,0,1,0-9.9,0,5,5,0,1,0,9.9,0Z"/><path d="M85.87,25.94a7.05,7.05,0,1,1,14.1,0,7.05,7.05,0,1,1-14.1,0Zm12,0a5,5,0,1,0-9.9,0,5,5,0,1,0,9.9,0Z"/><path d="M106.38,26.07l5.47-5h-1.36V19.25h6.27v1.81h-2.3l-3.69,3.49,5,6.27h2.49v1.81H112V30.83h1.46l-4-5-3,2.55v2.49h2.43v1.81h-7.5V30.83h3.07V14.17l-2.91.39-.29-1.65c1-.19,2.65-.06,3.4-.94.26-.29.45-.55.87-.55.94,0,.94.91.94,1.62Z"/><path d="M131.42,18.18l1.78.36a12.88,12.88,0,0,0-.45,3.14,8.81,8.81,0,0,0,.23,2.07l-1.94.16-.1-.71c-.23-1.59-.71-2.52-3.91-2.52-1.52,0-3.75.45-3.75,2.39,0,3.43,10.09.48,10.09,6,0,3.1-3.72,3.91-6.24,3.91a10.41,10.41,0,0,1-4.63-1l-.32,1.16-1.71-.52a8.81,8.81,0,0,0,.39-2.59,6,6,0,0,0-.42-2.39l2-.26c.39,2.68,1,3.82,4.85,3.82,1.2,0,4-.36,4-2.13,0-3.59-10.09-.39-10.09-5.89,0-3,3-4.33,5.79-4.33a13,13,0,0,1,4.14.74Z"/><path d="M142.68,19.25h7.54v1.81h-7.54v6.47c0,1.68-.19,3.69,2.07,3.69a21.62,21.62,0,0,0,5.66-1.07l.65,1.71a26.66,26.66,0,0,1-6.5,1.16c-2.43,0-3.88-1.42-3.88-4.59V21.06H136V19.25h4.66V15.66h2Z"/><path d="M152.8,25.94a7.05,7.05,0,1,1,14.1,0,7.05,7.05,0,1,1-14.1,0Zm12,0a5,5,0,1,0-9.9,0,5,5,0,1,0,9.9,0Z"/><path d="M174,30.83h5.85v1.81H169.21V30.83H172V21.09l-2.36.32-.29-1.65a4.52,4.52,0,0,0,2.85-.87c.26-.29.45-.55.87-.55.94,0,.94.91.94,1.62v1.71c1.78-1.29,3.49-2.81,5.82-2.81a3.45,3.45,0,0,1,3.27,2.62l-2,.81c-.26-.68-.58-1.62-1.46-1.62-1.65,0-4.37,2.3-5.63,3.43Z"/><path d="M187.58,26.72c.19,2.81,2.39,4.5,5.85,4.5a15,15,0,0,0,6-1.52l.58,1.65A16.21,16.21,0,0,1,193.18,33c-5.85,0-7.7-3.88-7.7-6.79a7.14,7.14,0,0,1,7.21-7.37c4,0,6.6,2.49,6.6,6.5a6.44,6.44,0,0,1-.13,1.36Zm9.67-1.81a4.32,4.32,0,0,0-4.53-4.24,5.32,5.32,0,0,0-5.14,4.24Z"/></svg>