<?xml version="1.0" standalone="no"?>
<!DOCTYPE svg PUBLIC "-//W3C//DTD SVG 20010904//EN"
 "http://www.w3.org/TR/2001/REC-SVG-20010904/DTD/svg10.dtd">
<svg version="1.0" xmlns="http://www.w3.org/2000/svg"
 width="700.000000pt" height="700.000000pt" viewBox="0 0 700.000000 700.000000"
 preserveAspectRatio="xMidYMid meet">
<metadata>
Created by potrace 1.11, written by Peter Selinger 2001-2013
</metadata>
<g transform="translate(0.000000,700.000000) scale(0.100000,-0.100000)"
fill="#000000" stroke="none">
<path d="M3317 6614 c-1 -1 -47 -5 -102 -8 -55 -3 -109 -8 -120 -10 -11 -2
-51 -7 -88 -11 -37 -3 -78 -8 -90 -11 -12 -2 -38 -6 -57 -9 -19 -3 -46 -7 -60
-10 -14 -2 -41 -7 -60 -10 -19 -4 -89 -20 -155 -36 -66 -17 -128 -32 -137 -34
-55 -12 -359 -120 -453 -160 -289 -124 -612 -314 -814 -480 -471 -386 -784
-802 -984 -1305 -42 -104 -109 -318 -121 -380 -2 -14 -9 -46 -15 -72 -15 -63
-40 -224 -49 -306 -9 -90 -8 -459 1 -549 7 -66 40 -270 51 -318 41 -175 92
-340 141 -459 9 -20 15 -38 15 -41 0 -17 170 -338 225 -425 68 -108 203 -292
277 -377 68 -77 277 -284 353 -350 374 -321 844 -572 1344 -717 132 -39 370
-92 451 -102 30 -3 57 -8 60 -9 3 -2 30 -6 60 -10 30 -3 71 -8 90 -10 196 -25
677 -25 832 0 13 2 50 6 83 10 33 3 67 8 75 10 8 2 37 6 63 10 66 8 214 39
338 70 520 132 1046 401 1443 738 89 77 293 280 373 372 215 251 396 551 516
855 64 162 125 372 143 490 3 19 9 51 14 70 5 19 12 64 15 100 4 36 10 94 15
130 8 70 6 495 -3 520 -3 8 -8 42 -11 75 -4 33 -8 71 -11 85 -3 13 -7 41 -10
61 -12 78 -67 289 -106 404 -116 339 -299 662 -549 966 -83 102 -366 374 -480
463 -285 220 -561 379 -878 506 -383 151 -723 231 -1137 266 -68 6 -483 13
-488 8z m404 -498 c93 -8 254 -31 289 -41 8 -2 31 -7 50 -10 19 -3 77 -17 128
-31 938 -253 1660 -1006 1872 -1954 21 -93 27 -125 34 -185 3 -22 8 -49 10
-60 24 -120 25 -463 1 -660 -26 -215 -100 -499 -170 -660 -8 -16 -23 -52 -35
-80 -136 -322 -394 -672 -673 -913 -192 -166 -340 -264 -562 -372 -201 -99
-393 -169 -560 -205 -104 -23 -114 -25 -215 -40 -139 -21 -230 -28 -370 -28
-117 -1 -300 9 -345 18 -11 2 -38 6 -60 9 -299 36 -693 177 -971 346 -68 42
-224 148 -234 159 -3 3 -23 19 -45 36 -66 49 -114 93 -245 225 -316 319 -545
724 -660 1167 -33 127 -33 125 -54 263 -20 131 -29 244 -29 385 0 112 11 333
18 345 1 3 6 32 10 65 3 32 8 62 10 65 2 3 6 23 9 45 14 85 50 225 88 335 319
934 1113 1602 2084 1754 55 9 143 19 195 22 52 3 95 7 96 8 5 4 268 -2 334 -8z"/>
<path d="M3388 5775 c-2 -1 -50 -5 -108 -9 -235 -13 -464 -69 -705 -171 -115
-49 -181 -84 -321 -169 -103 -63 -255 -186 -374 -306 -179 -179 -300 -345
-408 -560 -97 -193 -141 -315 -60 -170 22 41 44 77 48 80 3 3 17 23 30 45 63
103 240 298 375 413 55 47 245 176 315 214 82 45 230 108 333 142 124 42 222
63 392 86 73 9 418 6 470 -4 17 -4 79 -15 138 -27 421 -78 844 -332 1117 -669
25 -30 48 -57 51 -60 3 -3 38 -52 76 -110 386 -578 434 -1327 126 -1957 -240
-488 -681 -861 -1203 -1016 -204 -60 -381 -85 -593 -81 -126 2 -264 11 -276
19 -3 1 -30 6 -58 10 -29 3 -67 10 -85 15 -17 6 -33 8 -36 6 -14 -15 345 -109
493 -130 192 -27 495 -23 680 9 86 15 274 59 305 72 8 3 20 7 25 9 72 18 302
120 420 187 281 159 572 436 754 717 137 212 268 526 306 735 40 221 49 312
48 475 0 101 -8 225 -19 286 -60 361 -155 613 -347 919 -20 31 -129 177 -161
215 -81 95 -251 256 -351 333 -290 224 -683 387 -1043 432 -103 13 -346 27
-354 20z"/>
<path d="M2770 4754 c-73 -13 -83 -15 -145 -29 -218 -51 -493 -204 -663 -369
-54 -52 -182 -199 -182 -209 0 -3 26 5 57 19 93 41 241 87 323 100 103 16 148
19 240 18 200 -2 360 -37 530 -116 430 -199 710 -584 767 -1053 12 -96 6 -284
-11 -381 -33 -177 -109 -360 -211 -509 -73 -105 -235 -263 -344 -334 -51 -33
-98 -61 -105 -62 -6 0 -2 -4 8 -8 43 -17 266 22 431 76 110 36 364 169 405
213 3 3 27 23 55 45 240 193 432 504 500 814 63 286 53 528 -32 806 -28 93
-141 309 -207 396 -244 323 -572 519 -976 585 -78 12 -366 11 -440 -2z"/>
</g>
</svg>
