<svg xmlns="http://www.w3.org/2000/svg" xmlns:xlink="http://www.w3.org/1999/xlink" viewBox="0 0 235.82 300"><defs><style>.cls-1{fill:url(#radial-gradient);}.cls-2{fill:url(#linear-gradient);}.cls-3{fill:url(#linear-gradient-2);}.cls-4{fill:url(#linear-gradient-3);}.cls-5{fill:url(#linear-gradient-4);}.cls-6{fill:url(#linear-gradient-5);}.cls-7{fill:url(#linear-gradient-6);}.cls-8{fill:url(#linear-gradient-7);}.cls-9{fill:url(#linear-gradient-8);}.cls-10{fill:url(#linear-gradient-9);}.cls-11{fill:url(#linear-gradient-10);}.cls-12{fill:url(#linear-gradient-11);}.cls-13{fill:url(#linear-gradient-12);}.cls-14{fill:url(#linear-gradient-13);}.cls-15{fill:url(#linear-gradient-14);}.cls-16{fill:url(#linear-gradient-15);}.cls-17{fill:url(#linear-gradient-16);}.cls-18{fill:url(#linear-gradient-17);}.cls-19{fill:url(#linear-gradient-18);}</style><radialGradient id="radial-gradient" cx="119.72" cy="90.48" r="113.65" gradientUnits="userSpaceOnUse"><stop offset="0.7" stop-color="#fee361"/><stop offset="0.72" stop-color="#f4ce56"/><stop offset="0.76" stop-color="#e9b448"/><stop offset="0.8" stop-color="#dfa03d"/><stop offset="0.85" stop-color="#d99235"/><stop offset="0.91" stop-color="#d58a30"/><stop offset="1" stop-color="#d4872f"/></radialGradient><linearGradient id="linear-gradient" x1="113.58" y1="90.24" x2="222.62" y2="28.53" gradientUnits="userSpaceOnUse"><stop offset="0.01" stop-color="#d4872f"/><stop offset="0.19" stop-color="#e3a841"/><stop offset="0.41" stop-color="#f2c852"/><stop offset="0.59" stop-color="#fbdc5d"/><stop offset="0.72" stop-color="#fee361"/></linearGradient><linearGradient id="linear-gradient-2" x1="104.52" y1="95.42" x2="192.41" y2="26.9" xlink:href="#linear-gradient"/><linearGradient id="linear-gradient-3" x1="10.8" y1="267.6" x2="10.8" y2="186.45" xlink:href="#linear-gradient"/><linearGradient id="linear-gradient-4" x1="37.32" y1="267.49" x2="37.32" y2="186.44" xlink:href="#linear-gradient"/><linearGradient id="linear-gradient-5" x1="65.72" y1="267.31" x2="65.72" y2="186.18" xlink:href="#linear-gradient"/><linearGradient id="linear-gradient-6" x1="91.25" y1="267.36" x2="91.25" y2="186.12" xlink:href="#linear-gradient"/><linearGradient id="linear-gradient-7" x1="112.75" y1="267.23" x2="112.75" y2="186.11" xlink:href="#linear-gradient"/><linearGradient id="linear-gradient-8" x1="134.45" y1="267.17" x2="134.45" y2="185.89" xlink:href="#linear-gradient"/><linearGradient id="linear-gradient-9" x1="171.34" y1="267.06" x2="171.34" y2="185.86" xlink:href="#linear-gradient"/><linearGradient id="linear-gradient-10" x1="198.7" y1="266.82" x2="198.7" y2="185.69" xlink:href="#linear-gradient"/><linearGradient id="linear-gradient-11" x1="223.91" y1="266.81" x2="223.91" y2="185.66" xlink:href="#linear-gradient"/><linearGradient id="linear-gradient-12" x1="87.15" y1="341.5" x2="87.15" y2="260.49" xlink:href="#linear-gradient"/><linearGradient id="linear-gradient-13" x1="104.62" y1="346.34" x2="104.62" y2="265.08" xlink:href="#linear-gradient"/><linearGradient id="linear-gradient-14" x1="117.8" y1="352.36" x2="117.8" y2="271.22" xlink:href="#linear-gradient"/><linearGradient id="linear-gradient-15" x1="137.57" y1="341.2" x2="137.57" y2="259.99" xlink:href="#linear-gradient"/><linearGradient id="linear-gradient-16" x1="152.41" y1="341.39" x2="152.41" y2="260.1" xlink:href="#linear-gradient"/><linearGradient id="linear-gradient-17" x1="36.32" y1="335.92" x2="36.32" y2="265.14" xlink:href="#linear-gradient"/><linearGradient id="linear-gradient-18" x1="199.5" y1="335.37" x2="199.5" y2="264.62" xlink:href="#linear-gradient"/></defs><title>thalesday_logo_symbol-type_vert_colour_rgb</title><g id="Layer_1" data-name="Layer 1"><path class="cls-1" d="M117.91,0C61.83,0,16.37,40.51,16.37,90.48S61.83,181,117.91,181s101.54-40.51,101.54-90.48S174,0,117.91,0Zm0,166.63a76.15,76.15,0,1,1,76.15-76.16A76.16,76.16,0,0,1,117.91,166.63Z"/><path class="cls-2" d="M116.19,24.4A64.37,64.37,0,0,0,55.26,68.06a57.24,57.24,0,1,1,36.32,80.17A64.36,64.36,0,1,0,116.19,24.4Z"/><path class="cls-3" d="M108.8,53.85A43,43,0,0,0,67.89,72a38.2,38.2,0,0,1,35.92,67.42,43,43,0,0,0,5-85.55Z"/><path class="cls-4" d="M13.14,261.82H8.45v-24.7H0v-4H21.59v4H13.14Z"/><path class="cls-5" d="M48.65,261.82H43.93V248.87H30.69v12.95H26V233.1h4.7v11.75H43.93V233.1h4.72Z"/><path class="cls-6" d="M74,261.82l-2.87-8h-11l-2.81,8h-5L63.17,233h5.11L79,261.82Zm-4.11-12L67.24,242q-.29-.79-.82-2.48T65.7,237a44,44,0,0,1-1.55,5.29l-2.59,7.49Z"/><path class="cls-7" d="M82.82,261.82V233.1h4.7v24.7H99.68v4Z"/><path class="cls-8" d="M120.88,261.82H104.63V233.1h16.25v4H109.32v7.82h10.83v3.93H109.32v9h11.55Z"/><path class="cls-9" d="M143.65,254a7.23,7.23,0,0,1-2.77,6q-2.77,2.18-7.64,2.18a18.24,18.24,0,0,1-8-1.51v-4.44a21.65,21.65,0,0,0,4.18,1.45,17.72,17.72,0,0,0,4.12.53,6.55,6.55,0,0,0,4.12-1.06,3.45,3.45,0,0,0,1.33-2.85,3.57,3.57,0,0,0-1.22-2.73,18.32,18.32,0,0,0-5-2.65,13.31,13.31,0,0,1-5.54-3.64,7.7,7.7,0,0,1-1.61-4.91,6.88,6.88,0,0,1,2.56-5.66,10.6,10.6,0,0,1,6.86-2.06,20.14,20.14,0,0,1,8.21,1.81l-1.49,3.83a18,18,0,0,0-6.84-1.61,5.25,5.25,0,0,0-3.46,1,3.26,3.26,0,0,0-1.18,2.62,3.69,3.69,0,0,0,.47,1.92,4.79,4.79,0,0,0,1.55,1.5,26.2,26.2,0,0,0,3.89,1.87,21.29,21.29,0,0,1,4.64,2.46,7.22,7.22,0,0,1,2.16,2.57A7.74,7.74,0,0,1,143.65,254Z"/><path class="cls-10" d="M183,247.18q0,7.11-3.95,10.88t-11.38,3.76h-8V233.1h8.88q6.86,0,10.67,3.69T183,247.18Zm-5,.16q0-10.32-9.65-10.32h-4.07v20.85h3.34Q178.07,257.87,178.07,247.34Z"/><path class="cls-11" d="M207,261.82l-2.87-8h-11l-2.81,8h-5L196.15,233h5.11L212,261.82Zm-4.11-12L200.22,242q-.29-.79-.81-2.48t-.72-2.48a44,44,0,0,1-1.55,5.29l-2.59,7.49Z"/><path class="cls-12" d="M223.91,246.2l6.8-13.11h5.11l-9.57,17.59v11.14h-4.72v-11L212,233.1h5.11Z"/><path class="cls-13" d="M86.72,293.82l-6.85-17h-.1q.1,1.56.1,3.19v13.78H78.64V275.44h2l6.51,16.17h.08l6.51-16.17h1.94v18.38H94.36V279.89q0-1.46.15-3h-.1l-6.88,16.95Z"/><path class="cls-14" d="M108.83,293.82l-.31-2.16h-.1a6.47,6.47,0,0,1-2.12,1.87,5.65,5.65,0,0,1-2.57.55,4.45,4.45,0,0,1-3.13-1,3.69,3.69,0,0,1-1.12-2.85,3.52,3.52,0,0,1,1.67-3.1,9.07,9.07,0,0,1,4.82-1.17l2.6-.08v-.9a4.64,4.64,0,0,0-.79-2.94,3.07,3.07,0,0,0-2.55-1,8.54,8.54,0,0,0-3.93,1.06l-.47-1.08a10.41,10.41,0,0,1,4.45-1.06,4.44,4.44,0,0,1,3.36,1.17,5.14,5.14,0,0,1,1.11,3.65v9.09Zm-5-.88a4.35,4.35,0,0,0,4.71-4.73v-1.35l-2.39.1a9,9,0,0,0-4.11.9,2.59,2.59,0,0,0-1.23,2.37,2.55,2.55,0,0,0,.79,2A3.19,3.19,0,0,0,103.8,292.94Z"/><path class="cls-15" d="M111.89,280.15h1.28l2.89,7.67q1.32,3.53,1.67,4.76h.08q.53-1.62,1.72-4.84l2.89-7.59h1.28L117.58,296a12.34,12.34,0,0,1-1.24,2.62,3.34,3.34,0,0,1-1.18,1,3.58,3.58,0,0,1-1.63.34,5.6,5.6,0,0,1-1.6-.26v-1.08a5.91,5.91,0,0,0,1.57.2,2.11,2.11,0,0,0,1.13-.3,2.83,2.83,0,0,0,.89-.94,12.4,12.4,0,0,0,.92-2l.67-1.79Z"/><path class="cls-16" d="M143.32,293.82h-11.5v-1.11l4.89-5.1a35.76,35.76,0,0,0,2.89-3.27,9.25,9.25,0,0,0,1.22-2.16,6.07,6.07,0,0,0,.39-2.16,3.53,3.53,0,0,0-1.08-2.68,3.9,3.9,0,0,0-2.8-1,7,7,0,0,0-4.4,1.67l-.68-.87a7.74,7.74,0,0,1,5.1-1.94,5.32,5.32,0,0,1,3.78,1.28A4.59,4.59,0,0,1,142.5,280a7.3,7.3,0,0,1-.92,3.53,20.68,20.68,0,0,1-3.38,4.21l-4.71,4.84v.05h9.83Z"/><path class="cls-17" d="M152.41,275.12a5.67,5.67,0,0,1,3.77,1.19,4,4,0,0,1,1.43,3.23,3.82,3.82,0,0,1-.89,2.49,8,8,0,0,1-2.87,2,8.67,8.67,0,0,1,3.39,2.18,4.34,4.34,0,0,1,1,2.87,4.53,4.53,0,0,1-1.59,3.63,7.58,7.58,0,0,1-8.53.09,4.6,4.6,0,0,1-1.48-3.7,4.36,4.36,0,0,1,1-2.89,8.05,8.05,0,0,1,3.23-2.12,7.83,7.83,0,0,1-2.85-2,4,4,0,0,1-.83-2.55,4.08,4.08,0,0,1,.67-2.32,4.31,4.31,0,0,1,1.87-1.54A6.44,6.44,0,0,1,152.41,275.12Zm-4.51,14.17a3.27,3.27,0,0,0,1.17,2.69,6,6,0,0,0,6.61-.06,3.34,3.34,0,0,0,1.26-2.75,3.4,3.4,0,0,0-1-2.53,11.58,11.58,0,0,0-3.8-2,8.53,8.53,0,0,0-3.28,2A3.92,3.92,0,0,0,147.89,289.29Zm4.49-13a4.37,4.37,0,0,0-2.85.87,2.92,2.92,0,0,0-1.07,2.39,3,3,0,0,0,.4,1.55,4.11,4.11,0,0,0,1.14,1.22,13,13,0,0,0,2.51,1.28,8,8,0,0,0,2.94-1.75,3.25,3.25,0,0,0,.89-2.3,2.94,2.94,0,0,0-1.06-2.39A4.4,4.4,0,0,0,152.38,276.25Z"/><rect class="cls-18" x="0.05" y="284.49" width="72.53" height="1.81"/><rect class="cls-19" x="163.24" y="284.49" width="72.53" height="1.81"/></g></svg>