<svg id="Layer_1" data-name="Layer 1" xmlns="http://www.w3.org/2000/svg" xmlns:xlink="http://www.w3.org/1999/xlink" viewBox="0 0 300 37.57"><defs><style>.cls-1{fill:url(#linear-gradient);}.cls-2{fill:url(#linear-gradient-2);}.cls-3{fill:url(#linear-gradient-3);}.cls-4{fill:url(#linear-gradient-4);}.cls-5{fill:url(#linear-gradient-5);}.cls-6{fill:url(#linear-gradient-6);}.cls-7{fill:url(#linear-gradient-7);}.cls-8{fill:url(#linear-gradient-8);}.cls-9{fill:url(#linear-gradient-9);}</style><linearGradient id="linear-gradient" x1="13.74" y1="44.42" x2="13.74" y2="-58.82" gradientUnits="userSpaceOnUse"><stop offset="0.01" stop-color="#d4872f"/><stop offset="0.19" stop-color="#e3a841"/><stop offset="0.41" stop-color="#f2c852"/><stop offset="0.59" stop-color="#fbdc5d"/><stop offset="0.72" stop-color="#fee361"/></linearGradient><linearGradient id="linear-gradient-2" x1="47.48" y1="44.28" x2="47.48" y2="-58.83" xlink:href="#linear-gradient"/><linearGradient id="linear-gradient-3" x1="83.61" y1="44.05" x2="83.61" y2="-59.16" xlink:href="#linear-gradient"/><linearGradient id="linear-gradient-4" x1="116.08" y1="44.12" x2="116.08" y2="-59.24" xlink:href="#linear-gradient"/><linearGradient id="linear-gradient-5" x1="143.44" y1="43.95" x2="143.44" y2="-59.25" xlink:href="#linear-gradient"/><linearGradient id="linear-gradient-6" x1="171.05" y1="43.87" x2="171.05" y2="-59.52" xlink:href="#linear-gradient"/><linearGradient id="linear-gradient-7" x1="217.98" y1="43.73" x2="217.98" y2="-59.57" xlink:href="#linear-gradient"/><linearGradient id="linear-gradient-8" x1="252.78" y1="43.42" x2="252.78" y2="-59.78" xlink:href="#linear-gradient"/><linearGradient id="linear-gradient-9" x1="284.85" y1="43.41" x2="284.85" y2="-59.82" xlink:href="#linear-gradient"/></defs><title>thales-day-logo-text-horizontal</title><path class="cls-1" d="M16.72,37.07h-6V5.65H0V.52H27.47V5.65H16.72Z"/><path class="cls-2" d="M61.89,37.07h-6V20.6H39V37.07h-6V.52h6V15.47H55.89V.52h6Z"/><path class="cls-3" d="M94.18,37.07,90.53,26.92h-14L73,37.07h-6.3L80.36.38h6.5l13.67,36.69ZM89,21.77l-3.42-9.95q-.38-1-1-3.15t-.91-3.15a56,56,0,0,1-2,6.72l-3.3,9.52Z"/><path class="cls-4" d="M105.36,37.07V.52h6V31.94H126.8v5.12Z"/><path class="cls-5" d="M153.77,37.07H133.1V.52h20.67v5h-14.7v9.95h13.77v5H139.08V32h14.7Z"/><path class="cls-6" d="M182.74,27.14a9.19,9.19,0,0,1-3.53,7.65q-3.52,2.78-9.72,2.78a23.2,23.2,0,0,1-10.15-1.92V30a27.55,27.55,0,0,0,5.31,1.85,22.54,22.54,0,0,0,5.23.67q3.55,0,5.24-1.35a4.4,4.4,0,0,0,1.69-3.62,4.54,4.54,0,0,0-1.55-3.47q-1.55-1.43-6.4-3.37-5-2-7.05-4.62a9.79,9.79,0,0,1-2-6.25A8.75,8.75,0,0,1,163,2.62Q166.27,0,171.75,0a25.62,25.62,0,0,1,10.45,2.3l-1.9,4.87a22.84,22.84,0,0,0-8.7-2,6.68,6.68,0,0,0-4.4,1.26,4.15,4.15,0,0,0-1.5,3.34,4.69,4.69,0,0,0,.6,2.44,6.1,6.1,0,0,0,2,1.91,33.33,33.33,0,0,0,4.95,2.38,27.09,27.09,0,0,1,5.9,3.12,9.19,9.19,0,0,1,2.75,3.27A9.85,9.85,0,0,1,182.74,27.14Z"/><path class="cls-7" d="M232.83,18.45q0,9-5,13.84t-14.47,4.79H203.12V.52h11.3q8.72,0,13.57,4.7T232.83,18.45Zm-6.3.2q0-13.12-12.27-13.12h-5.17V32h4.25Q226.54,32,226.54,18.65Z"/><path class="cls-8" d="M263.36,37.07l-3.65-10.15h-14l-3.57,10.15h-6.3L249.53.38H256L269.7,37.07Zm-5.23-15.3-3.42-9.95q-.38-1-1-3.15t-.91-3.15a56,56,0,0,1-2,6.72l-3.3,9.52Z"/><path class="cls-9" d="M284.85,17.2,293.5.52H300L287.83,22.9V37.07h-6v-14L269.7.52h6.5Z"/></svg>