<svg id="Layer_1" data-name="Layer 1" xmlns="http://www.w3.org/2000/svg" xmlns:xlink="http://www.w3.org/1999/xlink" viewBox="0 0 300 70"><defs><style>.cls-1{fill:url(#radial-gradient);}.cls-2{fill:url(#linear-gradient);}.cls-3{fill:url(#linear-gradient-2);}.cls-4{fill:url(#linear-gradient-3);}.cls-5{fill:url(#linear-gradient-4);}.cls-6{fill:url(#linear-gradient-5);}.cls-7{fill:url(#linear-gradient-6);}.cls-8{fill:url(#linear-gradient-7);}.cls-9{fill:url(#linear-gradient-8);}.cls-10{fill:url(#linear-gradient-9);}.cls-11{fill:url(#linear-gradient-10);}.cls-12{fill:url(#linear-gradient-11);}</style><radialGradient id="radial-gradient" cx="39.98" cy="35" r="43.97" gradientUnits="userSpaceOnUse"><stop offset="0.7" stop-color="#fee361"/><stop offset="0.72" stop-color="#f4ce56"/><stop offset="0.76" stop-color="#e9b448"/><stop offset="0.8" stop-color="#dfa03d"/><stop offset="0.85" stop-color="#d99235"/><stop offset="0.91" stop-color="#d58a30"/><stop offset="1" stop-color="#d4872f"/></radialGradient><linearGradient id="linear-gradient" x1="37.6" y1="34.91" x2="79.79" y2="11.04" gradientUnits="userSpaceOnUse"><stop offset="0.01" stop-color="#d4872f"/><stop offset="0.19" stop-color="#e3a841"/><stop offset="0.41" stop-color="#f2c852"/><stop offset="0.59" stop-color="#fbdc5d"/><stop offset="0.72" stop-color="#fee361"/></linearGradient><linearGradient id="linear-gradient-2" x1="34.1" y1="36.91" x2="68.1" y2="10.4" xlink:href="#linear-gradient"/><linearGradient id="linear-gradient-3" x1="97.71" y1="53.12" x2="97.71" y2="-19.84" xlink:href="#linear-gradient"/><linearGradient id="linear-gradient-4" x1="121.55" y1="53.02" x2="121.55" y2="-19.85" xlink:href="#linear-gradient"/><linearGradient id="linear-gradient-5" x1="147.08" y1="52.85" x2="147.08" y2="-20.08" xlink:href="#linear-gradient"/><linearGradient id="linear-gradient-6" x1="170.03" y1="52.9" x2="170.03" y2="-20.13" xlink:href="#linear-gradient"/><linearGradient id="linear-gradient-7" x1="189.36" y1="52.78" x2="189.36" y2="-20.15" xlink:href="#linear-gradient"/><linearGradient id="linear-gradient-8" x1="208.87" y1="52.73" x2="208.87" y2="-20.34" xlink:href="#linear-gradient"/><linearGradient id="linear-gradient-9" x1="242.04" y1="52.63" x2="242.04" y2="-20.37" xlink:href="#linear-gradient"/><linearGradient id="linear-gradient-10" x1="266.63" y1="52.41" x2="266.63" y2="-20.52" xlink:href="#linear-gradient"/><linearGradient id="linear-gradient-11" x1="289.3" y1="52.4" x2="289.3" y2="-20.54" xlink:href="#linear-gradient"/></defs><title>thalesday_logo_horizontal_no-tag_no-bg_rgb_v01-03</title><path class="cls-1" d="M39.28,0C17.59,0,0,15.67,0,35S17.59,70,39.28,70,78.56,54.33,78.56,35,61,0,39.28,0Zm0,64.46A29.46,29.46,0,1,1,68.74,35,29.46,29.46,0,0,1,39.28,64.46Z"/><path class="cls-2" d="M38.62,9.44A24.9,24.9,0,0,0,15,26.33a22.14,22.14,0,1,1,14.05,31,24.9,24.9,0,1,0,9.52-47.9Z"/><path class="cls-3" d="M35.75,20.83a16.62,16.62,0,0,0-15.83,7,14.78,14.78,0,0,1,13.9,26.08,16.62,16.62,0,0,0,1.93-33.1Z"/><path class="cls-4" d="M99.82,47.92H95.59V25.72H88V22.1h19.41v3.62h-7.6Z"/><path class="cls-5" d="M131.74,47.92H127.5V36.28H115.59V47.92h-4.22V22.1h4.22V32.66H127.5V22.1h4.24Z"/><path class="cls-6" d="M154.56,47.92,152,40.75H142.1l-2.53,7.17h-4.45L144.79,22h4.59L159,47.92Zm-3.69-10.81-2.42-7q-.27-.71-.73-2.23t-.64-2.23a39.56,39.56,0,0,1-1.4,4.75l-2.33,6.73Z"/><path class="cls-7" d="M162.45,47.92V22.1h4.22V44.3h10.93v3.62Z"/><path class="cls-8" d="M196.67,47.92H182.06V22.1h14.61v3.57H186.28v7H196v3.53h-9.73v8.11h10.39Z"/><path class="cls-9" d="M217.14,40.91a6.5,6.5,0,0,1-2.49,5.41,10.83,10.83,0,0,1-6.87,2,16.39,16.39,0,0,1-7.17-1.36v-4a19.47,19.47,0,0,0,3.75,1.31,15.93,15.93,0,0,0,3.7.48,5.89,5.89,0,0,0,3.7-1A3.11,3.11,0,0,0,213,41.19a3.21,3.21,0,0,0-1.1-2.45,16.47,16.47,0,0,0-4.52-2.38,12,12,0,0,1-5-3.27,6.92,6.92,0,0,1-1.45-4.42,6.18,6.18,0,0,1,2.3-5.09,9.53,9.53,0,0,1,6.17-1.85,18.1,18.1,0,0,1,7.38,1.63l-1.34,3.44a16.14,16.14,0,0,0-6.15-1.45,4.72,4.72,0,0,0-3.11.89,2.93,2.93,0,0,0-1.06,2.36,3.32,3.32,0,0,0,.43,1.72,4.31,4.31,0,0,0,1.39,1.35,23.55,23.55,0,0,0,3.5,1.68,19.14,19.14,0,0,1,4.17,2.21,6.49,6.49,0,0,1,1.94,2.31A7,7,0,0,1,217.14,40.91Z"/><path class="cls-10" d="M252.54,34.76q0,6.39-3.55,9.78t-10.23,3.38h-7.22V22.1h8q6.17,0,9.59,3.32T252.54,34.76Zm-4.45.14q0-9.27-8.67-9.27h-3.66V44.37h3Q248.09,44.37,248.09,34.9Z"/><path class="cls-11" d="M274.11,47.92l-2.58-7.17h-9.87l-2.52,7.17h-4.45L264.34,22h4.59l9.66,25.93Zm-3.69-10.81-2.42-7q-.27-.71-.73-2.23t-.64-2.23a39.57,39.57,0,0,1-1.4,4.75l-2.33,6.73Z"/><path class="cls-12" d="M289.29,33.88l6.11-11.78H300l-8.6,15.81v10h-4.24V38l-8.57-16h4.59Z"/></svg>