<svg xmlns="http://www.w3.org/2000/svg" xmlns:xlink="http://www.w3.org/1999/xlink" viewBox="0 0 157.21 200"><defs><style>.cls-1{fill:url(#radial-gradient);}.cls-2{fill:url(#linear-gradient);}.cls-3{fill:url(#linear-gradient-2);}.cls-4{fill:url(#linear-gradient-3);}.cls-5{fill:url(#linear-gradient-4);}.cls-6{fill:url(#linear-gradient-5);}.cls-7{fill:url(#linear-gradient-6);}.cls-8{fill:url(#linear-gradient-7);}.cls-9{fill:url(#linear-gradient-8);}.cls-10{fill:url(#linear-gradient-9);}.cls-11{fill:url(#linear-gradient-10);}.cls-12{fill:url(#linear-gradient-11);}.cls-13{fill:url(#linear-gradient-12);}.cls-14{fill:url(#linear-gradient-13);}.cls-15{fill:url(#linear-gradient-14);}.cls-16{fill:url(#linear-gradient-15);}.cls-17{fill:url(#linear-gradient-16);}.cls-18{fill:url(#linear-gradient-17);}.cls-19{fill:url(#linear-gradient-18);}</style><radialGradient id="radial-gradient" cx="79.82" cy="60.32" r="75.77" gradientUnits="userSpaceOnUse"><stop offset="0.7" stop-color="#fee361"/><stop offset="0.72" stop-color="#f4ce56"/><stop offset="0.76" stop-color="#e9b448"/><stop offset="0.8" stop-color="#dfa03d"/><stop offset="0.85" stop-color="#d99235"/><stop offset="0.91" stop-color="#d58a30"/><stop offset="1" stop-color="#d4872f"/></radialGradient><linearGradient id="linear-gradient" x1="75.72" y1="60.16" x2="148.41" y2="19.02" gradientUnits="userSpaceOnUse"><stop offset="0.01" stop-color="#d4872f"/><stop offset="0.19" stop-color="#e3a841"/><stop offset="0.41" stop-color="#f2c852"/><stop offset="0.59" stop-color="#fbdc5d"/><stop offset="0.72" stop-color="#fee361"/></linearGradient><linearGradient id="linear-gradient-2" x1="69.68" y1="63.61" x2="128.27" y2="17.93" xlink:href="#linear-gradient"/><linearGradient id="linear-gradient-3" x1="7.2" y1="178.4" x2="7.2" y2="124.3" xlink:href="#linear-gradient"/><linearGradient id="linear-gradient-4" x1="24.88" y1="178.33" x2="24.88" y2="124.29" xlink:href="#linear-gradient"/><linearGradient id="linear-gradient-5" x1="43.82" y1="178.21" x2="43.82" y2="124.12" xlink:href="#linear-gradient"/><linearGradient id="linear-gradient-6" x1="60.83" y1="178.24" x2="60.83" y2="124.08" xlink:href="#linear-gradient"/><linearGradient id="linear-gradient-7" x1="75.17" y1="178.15" x2="75.17" y2="124.07" xlink:href="#linear-gradient"/><linearGradient id="linear-gradient-8" x1="89.64" y1="178.11" x2="89.64" y2="123.93" xlink:href="#linear-gradient"/><linearGradient id="linear-gradient-9" x1="114.23" y1="178.04" x2="114.23" y2="123.91" xlink:href="#linear-gradient"/><linearGradient id="linear-gradient-10" x1="132.47" y1="177.88" x2="132.47" y2="123.79" xlink:href="#linear-gradient"/><linearGradient id="linear-gradient-11" x1="149.28" y1="177.87" x2="149.28" y2="123.78" xlink:href="#linear-gradient"/><linearGradient id="linear-gradient-12" x1="58.1" y1="227.67" x2="58.1" y2="173.66" xlink:href="#linear-gradient"/><linearGradient id="linear-gradient-13" x1="69.74" y1="230.89" x2="69.74" y2="176.72" xlink:href="#linear-gradient"/><linearGradient id="linear-gradient-14" x1="78.53" y1="234.91" x2="78.53" y2="180.82" xlink:href="#linear-gradient"/><linearGradient id="linear-gradient-15" x1="91.71" y1="227.46" x2="91.71" y2="173.33" xlink:href="#linear-gradient"/><linearGradient id="linear-gradient-16" x1="101.61" y1="227.6" x2="101.61" y2="173.4" xlink:href="#linear-gradient"/><linearGradient id="linear-gradient-17" x1="24.21" y1="223.95" x2="24.21" y2="176.76" xlink:href="#linear-gradient"/><linearGradient id="linear-gradient-18" x1="133" y1="223.58" x2="133" y2="176.41" xlink:href="#linear-gradient"/></defs><title>thalesday_logo_vertical_rgb_gradient_no-bg</title><g id="Layer_2" data-name="Layer 2"><g id="Layer_1-2" data-name="Layer 1"><path class="cls-1" d="M78.61,0C41.22,0,10.91,27,10.91,60.32s30.31,60.32,67.69,60.32,67.69-27,67.69-60.32S116,0,78.61,0Zm0,111.09a50.77,50.77,0,1,1,50.77-50.77A50.77,50.77,0,0,1,78.61,111.09Z"/><path class="cls-2" d="M77.46,16.27A42.91,42.91,0,0,0,36.84,45.38,38.16,38.16,0,1,1,61.05,98.82,42.91,42.91,0,1,0,77.46,16.27Z"/><path class="cls-3" d="M72.53,35.9A28.63,28.63,0,0,0,45.26,48,25.47,25.47,0,0,1,69.21,92.93a28.64,28.64,0,0,0,3.32-57Z"/><path class="cls-4" d="M8.76,174.55H5.63V158.08H0V155.4H14.4v2.68H8.76Z"/><path class="cls-5" d="M32.43,174.55H29.29v-8.63H20.46v8.63H17.33V155.4h3.13v7.83h8.83V155.4h3.14Z"/><path class="cls-6" d="M49.36,174.55l-1.91-5.32H40.12l-1.87,5.32h-3.3l7.17-19.23h3.41l7.17,19.23Zm-2.74-8-1.79-5.21q-.2-.52-.54-1.65T43.8,158a29.34,29.34,0,0,1-1,3.52l-1.73,5Z"/><path class="cls-7" d="M55.21,174.55V155.4h3.13v16.46h8.11v2.69Z"/><path class="cls-8" d="M80.58,174.55H69.75V155.4H80.58V158h-7.7v5.21H80.1v2.62H72.88v6h7.7Z"/><path class="cls-9" d="M95.77,169.35a4.82,4.82,0,0,1-1.85,4,8,8,0,0,1-5.09,1.45,12.16,12.16,0,0,1-5.32-1v-3a14.44,14.44,0,0,0,2.78,1,11.81,11.81,0,0,0,2.74.35,4.36,4.36,0,0,0,2.74-.71,2.3,2.3,0,0,0,.88-1.9,2.38,2.38,0,0,0-.81-1.82A12.22,12.22,0,0,0,88.5,166a8.88,8.88,0,0,1-3.69-2.42,5.13,5.13,0,0,1-1.07-3.27,4.59,4.59,0,0,1,1.7-3.77A7.07,7.07,0,0,1,90,155.12a13.43,13.43,0,0,1,5.47,1.21l-1,2.55a12,12,0,0,0-4.56-1.07,3.5,3.5,0,0,0-2.31.66,2.17,2.17,0,0,0-.79,1.75,2.46,2.46,0,0,0,.32,1.28,3.2,3.2,0,0,0,1,1,17.46,17.46,0,0,0,2.59,1.24,14.2,14.2,0,0,1,3.09,1.64,4.81,4.81,0,0,1,1.44,1.72A5.16,5.16,0,0,1,95.77,169.35Z"/><path class="cls-10" d="M122,164.79q0,4.74-2.63,7.25t-7.58,2.51h-5.36V155.4h5.92a9.8,9.8,0,0,1,7.11,2.46A9.2,9.2,0,0,1,122,164.79Zm-3.3.11q0-6.88-6.43-6.88h-2.71v13.9h2.23Q118.71,171.92,118.72,164.89Z"/><path class="cls-11" d="M138,174.55l-1.91-5.32h-7.32l-1.87,5.32h-3.3l7.17-19.23h3.41l7.17,19.23Zm-2.74-8-1.79-5.21q-.2-.52-.54-1.65t-.48-1.65a29.35,29.35,0,0,1-1,3.52l-1.73,5Z"/><path class="cls-12" d="M149.27,164.13l4.53-8.74h3.41l-6.38,11.72v7.43h-3.14v-7.32l-6.35-11.83h3.41Z"/><path class="cls-13" d="M57.81,195.88l-4.57-11.31h-.07q.07,1,.07,2.13v9.19h-.82V183.62h1.32l4.34,10.78h.05l4.34-10.78h1.29v12.25h-.86v-9.29q0-1,.1-2h-.07l-4.58,11.3Z"/><path class="cls-14" d="M72.56,195.88l-.21-1.44h-.07a4.31,4.31,0,0,1-1.41,1.24,3.77,3.77,0,0,1-1.71.36,3,3,0,0,1-2.09-.69,2.46,2.46,0,0,1-.75-1.9,2.35,2.35,0,0,1,1.11-2.07,6,6,0,0,1,3.21-.78l1.74-.05V190a3.1,3.1,0,0,0-.53-2,2,2,0,0,0-1.7-.66,5.69,5.69,0,0,0-2.62.7l-.31-.72a6.94,6.94,0,0,1,3-.7,3,3,0,0,1,2.24.78,3.43,3.43,0,0,1,.74,2.43v6.06Zm-3.35-.59a2.9,2.9,0,0,0,3.14-3.15v-.9l-1.59.07a6,6,0,0,0-2.74.6,1.73,1.73,0,0,0-.82,1.58,1.7,1.7,0,0,0,.52,1.33A2.13,2.13,0,0,0,69.2,195.29Z"/><path class="cls-15" d="M74.59,186.77h.85l1.93,5.11q.88,2.36,1.11,3.18h.05q.35-1.08,1.15-3.23l1.93-5.06h.85l-4.08,10.59a8.23,8.23,0,0,1-.83,1.74,2.22,2.22,0,0,1-.78.68,2.38,2.38,0,0,1-1.09.23,3.73,3.73,0,0,1-1.06-.18v-.72a3.94,3.94,0,0,0,1,.13,1.41,1.41,0,0,0,.75-.2,1.89,1.89,0,0,0,.59-.62,8.27,8.27,0,0,0,.61-1.34l.45-1.19Z"/><path class="cls-16" d="M95.55,195.88H87.88v-.74l3.26-3.4a23.84,23.84,0,0,0,1.93-2.18,6.17,6.17,0,0,0,.81-1.44,4,4,0,0,0,.26-1.44,2.35,2.35,0,0,0-.72-1.78,2.6,2.6,0,0,0-1.87-.69,4.65,4.65,0,0,0-2.93,1.11l-.45-.58a5.16,5.16,0,0,1,3.4-1.29,3.55,3.55,0,0,1,2.52.85,3.06,3.06,0,0,1,.92,2.36,4.87,4.87,0,0,1-.62,2.35,13.78,13.78,0,0,1-2.25,2.8L89,195v0h6.55Z"/><path class="cls-17" d="M101.6,183.41a3.78,3.78,0,0,1,2.51.8,2.66,2.66,0,0,1,1,2.15,2.54,2.54,0,0,1-.59,1.66,5.34,5.34,0,0,1-1.92,1.33,5.78,5.78,0,0,1,2.26,1.45,2.89,2.89,0,0,1,.65,1.91,3,3,0,0,1-1.06,2.42,5.05,5.05,0,0,1-5.69.06,3.07,3.07,0,0,1-1-2.46,2.91,2.91,0,0,1,.7-1.93,5.37,5.37,0,0,1,2.15-1.42,5.22,5.22,0,0,1-1.9-1.35,2.67,2.67,0,0,1-.55-1.7,2.72,2.72,0,0,1,.44-1.55,2.87,2.87,0,0,1,1.24-1A4.29,4.29,0,0,1,101.6,183.41Zm-3,9.45a2.18,2.18,0,0,0,.78,1.79,4,4,0,0,0,4.4,0,2.23,2.23,0,0,0,.84-1.83,2.27,2.27,0,0,0-.66-1.69,7.72,7.72,0,0,0-2.54-1.36A5.69,5.69,0,0,0,99.24,191,2.61,2.61,0,0,0,98.6,192.86Zm3-8.69a2.92,2.92,0,0,0-1.9.58,1.94,1.94,0,0,0-.72,1.6,2,2,0,0,0,.26,1,2.74,2.74,0,0,0,.76.81,8.64,8.64,0,0,0,1.67.85,5.3,5.3,0,0,0,2-1.17,2.17,2.17,0,0,0,.59-1.53,2,2,0,0,0-.71-1.59A2.94,2.94,0,0,0,101.59,184.17Z"/><rect class="cls-18" x="0.04" y="189.66" width="48.35" height="1.21"/><rect class="cls-19" x="108.83" y="189.66" width="48.35" height="1.21"/></g></g></svg>